<svg width="102" height="29" viewBox="0 0 102 29" fill="none" xmlns="http://www.w3.org/2000/svg">
    <path d="M10.8649 20.6849H8.09216L12.3169 8.44678H15.6513L19.8701 20.6849H17.0974L14.0319 11.2434H13.9363L10.8649 20.6849ZM10.6916 15.8745H17.2408V17.8943H10.6916V15.8745Z" fill="black"/>
    <path d="M22.9996 8.44678V20.6849H20.454V8.44678H22.9996Z" fill="black"/>
    <path d="M26.743 8.44678V20.6849H24.1974V8.44678H26.743Z" fill="black"/>
    <path d="M30.5581 20.8581C29.9726 20.8581 29.4507 20.7565 28.9925 20.5534C28.5344 20.3462 28.1719 20.0415 27.905 19.6391C27.6421 19.2328 27.5106 18.7268 27.5106 18.1213C27.5106 17.6113 27.6042 17.1831 27.7915 16.8365C27.9787 16.4899 28.2336 16.211 28.5563 15.9999C28.879 15.7888 29.2455 15.6295 29.6558 15.5219C30.0702 15.4143 30.5044 15.3386 30.9585 15.2948C31.4923 15.2391 31.9226 15.1872 32.2493 15.1394C32.576 15.0876 32.813 15.0119 32.9604 14.9124C33.1077 14.8128 33.1815 14.6654 33.1815 14.4702V14.4343C33.1815 14.0558 33.0619 13.7631 32.823 13.5559C32.5879 13.3487 32.2533 13.2452 31.819 13.2452C31.3609 13.2452 30.9964 13.3467 30.7255 13.5499C30.4546 13.7491 30.2753 14.0001 30.1877 14.3028L27.8333 14.1116C27.9528 13.5539 28.1878 13.0719 28.5384 12.6655C28.889 12.2552 29.3411 11.9405 29.8949 11.7214C30.4526 11.4983 31.098 11.3867 31.831 11.3867C32.3409 11.3867 32.8289 11.4465 33.295 11.566C33.7651 11.6855 34.1814 11.8707 34.5439 12.1217C34.9104 12.3727 35.1992 12.6954 35.4104 13.0898C35.6215 13.4802 35.7271 13.9483 35.7271 14.4941V20.6848H33.3129V19.412H33.2412C33.0938 19.6988 32.8966 19.9518 32.6496 20.1709C32.4026 20.386 32.1058 20.5553 31.7593 20.6789C31.4127 20.7984 31.0123 20.8581 30.5581 20.8581ZM31.2872 19.1013C31.6616 19.1013 31.9923 19.0276 32.2792 18.8802C32.566 18.7288 32.7911 18.5256 32.9544 18.2706C33.1177 18.0157 33.1994 17.7269 33.1994 17.4042V16.4301C33.1197 16.482 33.0102 16.5298 32.8707 16.5736C32.7353 16.6134 32.5819 16.6513 32.4106 16.6871C32.2393 16.719 32.068 16.7488 31.8967 16.7767C31.7254 16.8007 31.5701 16.8226 31.4306 16.8425C31.1318 16.8863 30.8709 16.956 30.6478 17.0517C30.4247 17.1473 30.2514 17.2767 30.1279 17.44C30.0045 17.5994 29.9427 17.7986 29.9427 18.0376C29.9427 18.3842 30.0682 18.6491 30.3191 18.8324C30.5741 19.0116 30.8968 19.1013 31.2872 19.1013Z" fill="black"/>
    <path d="M36.8607 20.6848V11.5062H39.2868V13.1257H39.3944C39.5856 12.5878 39.9043 12.1636 40.3505 11.8528C40.7966 11.5421 41.3304 11.3867 41.9519 11.3867C42.5814 11.3867 43.1171 11.5441 43.5594 11.8588C44.0015 12.1696 44.2964 12.5918 44.4438 13.1257H44.5394C44.7266 12.5998 45.0652 12.1795 45.5552 11.8648C46.0492 11.5461 46.6328 11.3867 47.3061 11.3867C48.1626 11.3867 48.8577 11.6596 49.3916 12.2054C49.9294 12.7472 50.1983 13.5161 50.1983 14.512V20.6848H47.6586V15.014C47.6586 14.504 47.5232 14.1216 47.2523 13.8666C46.9814 13.6116 46.6428 13.4842 46.2364 13.4842C45.7743 13.4842 45.4138 13.6316 45.1548 13.9264C44.8959 14.2172 44.7665 14.6017 44.7665 15.0797V20.6848H42.2985V14.9602C42.2985 14.51 42.1691 14.1515 41.9101 13.8846C41.6551 13.6176 41.3185 13.4842 40.9002 13.4842C40.6173 13.4842 40.3624 13.5559 40.1354 13.6993C39.9122 13.8388 39.735 14.036 39.6035 14.2909C39.472 14.5419 39.4063 14.8366 39.4063 15.1753V20.6848H36.8607Z" fill="black"/>
    <path d="M53.9851 20.8581C53.3994 20.8581 52.8776 20.7565 52.4195 20.5534C51.9613 20.3462 51.5988 20.0415 51.3319 19.6391C51.069 19.2328 50.9375 18.7268 50.9375 18.1213C50.9375 17.6113 51.0311 17.1831 51.2183 16.8365C51.4056 16.4899 51.6606 16.211 51.9832 15.9999C52.3059 15.7888 52.6724 15.6295 53.0827 15.5219C53.4971 15.4143 53.9313 15.3386 54.3855 15.2948C54.9193 15.2391 55.3495 15.1872 55.6762 15.1394C56.0028 15.0876 56.2399 15.0119 56.3873 14.9124C56.5347 14.8128 56.6084 14.6654 56.6084 14.4702V14.4343C56.6084 14.0558 56.4888 13.7631 56.2498 13.5559C56.0148 13.3487 55.6801 13.2452 55.2459 13.2452C54.7878 13.2452 54.4233 13.3467 54.1524 13.5499C53.8815 13.7491 53.7022 14.0001 53.6146 14.3028L51.2602 14.1116C51.3797 13.5539 51.6147 13.0719 51.9653 12.6655C52.3159 12.2552 52.768 11.9405 53.3218 11.7214C53.8795 11.4983 54.5249 11.3867 55.2579 11.3867C55.7678 11.3867 56.2558 11.4465 56.7219 11.566C57.192 11.6855 57.6083 11.8707 57.9708 12.1217C58.3373 12.3727 58.6261 12.6954 58.8373 13.0898C59.0484 13.4802 59.154 13.9483 59.154 14.4941V20.6848H56.7398V19.412H56.6681C56.5207 19.6988 56.3235 19.9518 56.0765 20.1709C55.8295 20.386 55.5327 20.5553 55.1861 20.6789C54.8396 20.7984 54.4392 20.8581 53.9851 20.8581ZM54.7141 19.1013C55.0886 19.1013 55.4192 19.0276 55.7061 18.8802C55.9929 18.7288 56.218 18.5256 56.3813 18.2706C56.5447 18.0157 56.6263 17.7269 56.6263 17.4042V16.4301C56.5466 16.482 56.4371 16.5298 56.2977 16.5736C56.1622 16.6134 56.0088 16.6513 55.8375 16.6871C55.6662 16.719 55.4949 16.7488 55.3236 16.7767C55.1523 16.8007 54.997 16.8226 54.8575 16.8425C54.5587 16.8863 54.2978 16.956 54.0747 17.0517C53.8516 17.1473 53.6783 17.2767 53.5548 17.44C53.4313 17.5994 53.3696 17.7986 53.3696 18.0376C53.3696 18.3842 53.495 18.6491 53.746 18.8324C54.001 19.0116 54.3237 19.1013 54.7141 19.1013Z" fill="black"/>
    <path d="M62.8331 15.3785V20.6848H60.2875V11.5062H62.7137V13.1257H62.8212C63.0244 12.5918 63.365 12.1696 63.843 11.8588C64.3211 11.5441 64.9007 11.3867 65.582 11.3867C66.2192 11.3867 66.7749 11.5262 67.2492 11.805C67.7235 12.0839 68.0915 12.4823 68.3546 13.0002C68.6177 13.5141 68.7489 14.1275 68.7489 14.8407V20.6848H66.2035V15.2948C66.2074 14.7331 66.0638 14.2949 65.7731 13.9801C65.4823 13.6614 65.082 13.5021 64.5721 13.5021C64.2294 13.5021 63.9267 13.5758 63.6637 13.7232C63.4048 13.8706 63.2016 14.0858 63.0543 14.3686C62.9108 14.6475 62.8371 14.9841 62.8331 15.3785Z" fill="black"/>
    <path d="M73.2965 20.8343C72.5992 20.8343 71.9674 20.655 71.4019 20.2965C70.8403 19.9339 70.3942 19.4021 70.0636 18.701C69.7369 17.9958 69.5735 17.1314 69.5735 16.1076C69.5735 15.0558 69.7428 14.1814 70.0813 13.4842C70.4198 12.7831 70.8699 12.2592 71.4321 11.9126C71.9976 11.5621 72.6169 11.3868 73.29 11.3868C73.8043 11.3868 74.2327 11.4744 74.5751 11.6497C74.9215 11.821 75.2003 12.0362 75.4116 12.2951C75.6267 12.55 75.7901 12.801 75.9016 13.048H75.979V8.44678H78.5192V20.6849H76.0092V19.2149H75.9016C75.7822 19.4699 75.613 19.7228 75.3938 19.9738C75.1787 20.2207 74.8979 20.426 74.5508 20.5892C74.2084 20.7526 73.7905 20.8343 73.2965 20.8343ZM74.1028 18.8085C74.5135 18.8085 74.8598 18.697 75.1426 18.4739C75.4293 18.2468 75.6484 17.9301 75.7999 17.5237C75.9554 17.1174 76.0328 16.6414 76.0328 16.0956C76.0328 15.5498 75.9574 15.0758 75.8058 14.6734C75.6543 14.271 75.4352 13.9603 75.1485 13.7412C74.8618 13.5221 74.5135 13.4125 74.1028 13.4125C73.6849 13.4125 73.3319 13.5261 73.0453 13.7531C72.7586 13.9802 72.5414 14.295 72.3938 14.6973C72.2462 15.0996 72.1727 15.5658 72.1727 16.0956C72.1727 16.6294 72.2462 17.1015 72.3938 17.5118C72.5454 17.9181 72.7625 18.2368 73.0453 18.4679C73.3319 18.695 73.6849 18.8085 74.1028 18.8085Z" fill="black"/>
    <path d="M82.3878 20.8581C81.8019 20.8581 81.2804 20.7565 80.8225 20.5534C80.3639 20.3462 80.0018 20.0415 79.7348 19.6391C79.4717 19.2328 79.3405 18.7268 79.3405 18.1213C79.3405 17.6113 79.4337 17.1831 79.6213 16.8365C79.8083 16.4899 80.0635 16.211 80.3862 15.9999C80.709 15.7888 81.0751 15.6295 81.4857 15.5219C81.8997 15.4143 82.334 15.3386 82.788 15.2948C83.322 15.2391 83.7523 15.1872 84.079 15.1394C84.4057 15.0876 84.6426 15.0119 84.7902 14.9124C84.9371 14.8128 85.0112 14.6654 85.0112 14.4702V14.4343C85.0112 14.0558 84.8918 13.7631 84.6524 13.5559C84.4175 13.3487 84.083 13.2452 83.6487 13.2452C83.1908 13.2452 82.826 13.3467 82.5551 13.5499C82.2841 13.7491 82.105 14.0001 82.0171 14.3028L79.6626 14.1116C79.7827 13.5539 80.0175 13.0719 80.3679 12.6655C80.7188 12.2552 81.1708 11.9405 81.7245 11.7214C82.2822 11.4983 82.9277 11.3867 83.6605 11.3867C84.1709 11.3867 84.6583 11.4465 85.1247 11.566C85.5945 11.6855 86.011 11.8707 86.3738 12.1217C86.7399 12.3727 87.0292 12.6954 87.2398 13.0898C87.451 13.4802 87.5566 13.9483 87.5566 14.4941V20.6848H85.1424V19.412H85.0709C84.9233 19.6988 84.7265 19.9518 84.4792 20.1709C84.2325 20.386 83.9353 20.5553 83.589 20.6789C83.2426 20.7984 82.8417 20.8581 82.3878 20.8581ZM83.1166 19.1013C83.4912 19.1013 83.8219 19.0276 84.1085 18.8802C84.3959 18.7288 84.6209 18.5256 84.7843 18.2706C84.9476 18.0157 85.029 17.7269 85.029 17.4042V16.4301C84.9496 16.482 84.84 16.5298 84.7003 16.5736C84.5651 16.6134 84.4116 16.6513 84.2404 16.6871C84.0692 16.719 83.898 16.7488 83.7261 16.7767C83.5549 16.8007 83.3994 16.8226 83.2603 16.8425C82.9618 16.8863 82.7007 16.956 82.4776 17.0517C82.2546 17.1473 82.0808 17.2767 81.9574 17.44C81.8341 17.5994 81.7724 17.7986 81.7724 18.0376C81.7724 18.3842 81.8977 18.6491 82.149 18.8324C82.4035 19.0116 82.7263 19.1013 83.1166 19.1013Z" fill="black"/>
    <path d="M93.4195 13.1094V10.1694H94.7585C94.931 10.1694 95.0878 10.2066 95.2282 10.2809C95.3693 10.3527 95.4795 10.4562 95.5588 10.5917C95.6415 10.7245 95.6828 10.8825 95.6828 11.0658C95.6828 11.2517 95.6415 11.415 95.5588 11.5557C95.4768 11.6938 95.364 11.8027 95.2203 11.8824C95.0799 11.9595 94.9205 11.998 94.7421 11.998H93.6347V11.6673H94.6706C94.8536 11.6673 94.9999 11.6142 95.1088 11.5079C95.2203 11.4017 95.2761 11.2543 95.2761 11.0658C95.2761 10.8745 95.2203 10.7324 95.1088 10.6395C94.9999 10.5465 94.8556 10.5001 94.6745 10.5001H93.8059V13.1094H93.4195ZM95.0773 11.7669L95.8022 13.1094H95.3719L94.6588 11.7669H95.0773ZM94.4672 14.8623C94.0264 14.8623 93.6137 14.7799 93.2286 14.6153C92.8435 14.4506 92.505 14.2222 92.2124 13.9301C91.9205 13.6379 91.6922 13.2993 91.5275 12.9142C91.3629 12.5291 91.2802 12.1161 91.2802 11.6753C91.2802 11.2344 91.3629 10.8214 91.5275 10.4363C91.6922 10.0512 91.9205 9.71263 92.2124 9.42043C92.505 9.1283 92.8435 8.89994 93.2286 8.73528C93.6137 8.57061 94.0264 8.48828 94.4672 8.48828C94.9081 8.48828 95.3214 8.57061 95.7065 8.73528C96.0915 8.89994 96.4301 9.1283 96.7226 9.42043C97.0146 9.71263 97.2429 10.0512 97.4075 10.4363C97.5722 10.8214 97.6542 11.2344 97.6542 11.6753C97.6542 12.1161 97.5722 12.5291 97.4075 12.9142C97.2429 13.2993 97.0146 13.6379 96.7226 13.9301C96.4301 14.2222 96.0915 14.4506 95.7065 14.6153C95.3214 14.7799 94.9081 14.8623 94.4672 14.8623ZM94.4672 14.436C94.9776 14.436 95.4408 14.3125 95.858 14.0655C96.2772 13.8185 96.6105 13.4866 96.8578 13.0696C97.1044 12.6499 97.2284 12.1852 97.2284 11.6753C97.2284 11.1653 97.1031 10.7019 96.8538 10.285C96.6065 9.86798 96.2746 9.53596 95.858 9.28897C95.4408 9.03935 94.9776 8.9145 94.4672 8.9145C93.9575 8.9145 93.493 9.03803 93.0731 9.28503C92.6559 9.53202 92.324 9.86529 92.0773 10.285C91.83 10.7019 91.7066 11.1653 91.7066 11.6753C91.7066 12.1825 91.83 12.646 92.0773 13.0656C92.324 13.4852 92.6559 13.8185 93.0731 14.0655C93.493 14.3125 93.9575 14.436 94.4672 14.436Z" fill="black"/>
    <path d="M1 8.44682V1.18163M8.2652 1H1" stroke="black" stroke-width="2"/>
    <path d="M101 19.7944V27.0596M93.7351 27.2412H101" stroke="black" stroke-width="2"/>
    </svg>
    